<svg preserveAspectRatio="none" id="my-svg" version="1" baseProfile="full" width="100%" height="100%" viewBox="0 0 2560 1329" xmlns="http://www.w3.org/2000/svg"><rect width="2560" height="1329" fill="#141411"/><path transform="scale(1, 1)" d="M 0,1329 V 0,797 C 239.54761904761898,697.2142857142858 479.09523809523796,597.4285714285714 677,664 C 874.904761904762,730.5714285714286 1031.166666666667,963.5000000000001 1262,941 C 1492.833333333333,918.4999999999999 1798.238095238095,640.5714285714286 2027,574 C 2255.761904761905,507.42857142857144 2407.8809523809523,652.2142857142858 2560,797 C 2560,797 2560,1329 2560,1329 Z" stroke="none" stroke-width="0" fill="#ebebee90" class="transition-all duration-300 ease-in-out delay-150" style="transform-origin: center center;"/><path transform="scale(1, 1)" d="M 0,1329 V 0,1196 C 165.04761904761898,1114.2857142857142 330.09523809523796,1032.5714285714287 552,1077 C 773.904761904762,1121.4285714285713 1052.6666666666667,1292 1294,1285 C 1535.3333333333333,1278 1739.2380952380954,1093.4285714285713 1944,1049 C 2148.7619047619046,1004.5714285714287 2354.3809523809523,1100.2857142857142 2560,1196 C 2560,1196 2560,1329 2560,1329 Z" stroke="none" stroke-width="0" fill="#ebebeeff" class="transition-all duration-300 ease-in-out delay-150" style="transform-origin: center center;"/></svg>