<svg preserveAspectRatio="none" id="my-svg" version="1" baseProfile="full" width="100%" height="100%" viewBox="0 0 2560 1329" xmlns="http://www.w3.org/2000/svg"><rect width="2560" height="1329" fill="#ebebee"/><path transform="scale(1, 1)" d="M 0,1329 V 0,797 C 178.29761904761898,920.8571428571429 356.59523809523796,1044.7142857142858 582,940 C 807.404761904762,835.2857142857143 1079.9166666666667,502.00000000000006 1297,499 C 1514.0833333333333,495.99999999999994 1675.7380952380954,823.2857142857142 1877,928 C 2078.2619047619046,1032.7142857142858 2319.1309523809523,914.8571428571429 2560,797 C 2560,797 2560,1329 2560,1329 Z" stroke="none" stroke-width="0" fill="#14141190" class="transition-all duration-300 ease-in-out delay-150" style="transform-origin: center center;"/><path transform="scale(1, 1)" d="M 0,1329 V 0,1196 C 238.79761904761898,1111.642857142857 477.59523809523796,1027.2857142857142 657,1023 C 836.404761904762,1018.7142857142857 956.4166666666667,1094.4999999999998 1180,1117 C 1403.5833333333333,1139.5000000000002 1730.7380952380954,1108.7142857142858 1978,1113 C 2225.2619047619046,1117.2857142857142 2392.6309523809523,1156.642857142857 2560,1196 C 2560,1196 2560,1329 2560,1329 Z" stroke="none" stroke-width="0" fill="#141411ff" class="transition-all duration-300 ease-in-out delay-150" style="transform-origin: center center;"/></svg>