<svg preserveAspectRatio="none" id="my-svg" version="1" baseProfile="full" width="100%" height="100%" viewBox="0 0 2560 1329" xmlns="http://www.w3.org/2000/svg"><rect width="2560" height="1329" fill="#ebebee"/><path transform="scale(1, -1)" d="M 0,1329 V 0,797 C 262.2619047619047,906.8571428571429 524.5238095238094,1016.7142857142857 737,957 C 949.4761904761906,897.2857142857143 1112.1666666666667,667.9999999999999 1313,676 C 1513.8333333333333,684.0000000000001 1752.8095238095239,929.2857142857142 1967,989 C 2181.190476190476,1048.7142857142858 2370.595238095238,922.8571428571429 2560,797 C 2560,797 2560,1329 2560,1329 Z" stroke="none" stroke-width="0" fill="#14141190" class="transition-all duration-300 ease-in-out delay-150" style="transform-origin: center center;"/><path transform="scale(1, -1)" d="M 0,1329 V 0,1196 C 165.26190476190476,1185.4642857142858 330.5238095238095,1174.9285714285713 533,1132 C 735.4761904761905,1089.0714285714287 975.1666666666665,1013.75 1203,1023 C 1430.8333333333335,1032.25 1646.8095238095239,1126.0714285714287 1871,1169 C 2095.190476190476,1211.9285714285713 2327.595238095238,1203.9642857142858 2560,1196 C 2560,1196 2560,1329 2560,1329 Z" stroke="none" stroke-width="0" fill="#141411ff" class="transition-all duration-300 ease-in-out delay-150" style="transform-origin: center center;"/></svg>