<svg preserveAspectRatio="none" id="my-svg" version="1" baseProfile="full" width="100%" height="100%" viewBox="0 0 2560 1329" xmlns="http://www.w3.org/2000/svg"><rect width="2560" height="1329" fill="#ebebee"/><path transform="scale(1, -1)" d="M 0,1329 V 0,797 C 167.08333333333337,676.4642857142858 334.16666666666674,555.9285714285714 543,633 C 751.8333333333333,710.0714285714286 1002.4166666666665,984.75 1265,1075 C 1527.5833333333335,1165.25 1802.166666666667,1071.0714285714287 2020,994 C 2237.833333333333,916.9285714285713 2398.9166666666665,856.9642857142857 2560,797 C 2560,797 2560,1329 2560,1329 Z" stroke="none" stroke-width="0" fill="#14141190" class="transition-all duration-300 ease-in-out delay-150" style="transform-origin: center center;"/><path transform="scale(1, -1)" d="M 0,1329 V 0,1196 C 256.0119047619047,1271.3214285714284 512.0238095238094,1346.642857142857 694,1289 C 875.9761904761906,1231.357142857143 983.9166666666667,1040.75 1199,994 C 1414.0833333333333,947.2499999999999 1736.3095238095239,1044.3571428571427 1981,1102 C 2225.690476190476,1159.6428571428573 2392.845238095238,1177.8214285714287 2560,1196 C 2560,1196 2560,1329 2560,1329 Z" stroke="none" stroke-width="0" fill="#141411ff" class="transition-all duration-300 ease-in-out delay-150" style="transform-origin: center center;"/></svg>