<svg preserveAspectRatio="none" id="my-svg" version="1" baseProfile="full" width="100%" height="100%" viewBox="0 0 2560 1329" xmlns="http://www.w3.org/2000/svg"><rect width="2560" height="1329" fill="#ebebee"/><path transform="scale(1, 1)" d="M 0,1329 V 0,797 C 188.69047619047615,817.1428571428571 377.3809523809523,837.2857142857143 625,850 C 872.6190476190477,862.7142857142857 1179.1666666666667,868 1368,879 C 1556.8333333333333,890 1627.9523809523807,906.7142857142857 1807,894 C 1986.0476190476193,881.2857142857143 2273.0238095238096,839.1428571428571 2560,797 C 2560,797 2560,1329 2560,1329 Z" stroke="none" stroke-width="0" fill="#14141190" class="transition-all duration-300 ease-in-out delay-150" style="transform-origin: center center;"/><path transform="scale(1, 1)" d="M 0,1329 V 0,1196 C 233.19047619047626,1131.107142857143 466.3809523809525,1066.2142857142858 662,1080 C 857.6190476190475,1093.7857142857142 1015.6666666666663,1186.25 1202,1164 C 1388.3333333333337,1141.75 1602.9523809523812,1004.7857142857143 1834,991 C 2065.047619047619,977.2142857142857 2312.523809523809,1086.607142857143 2560,1196 C 2560,1196 2560,1329 2560,1329 Z" stroke="none" stroke-width="0" fill="#141411ff" class="transition-all duration-300 ease-in-out delay-150" style="transform-origin: center center;"/></svg>